<svg xmlns="http://www.w3.org/2000/svg" version="1.1" xmlns:xlink="http://www.w3.org/1999/xlink" xmlns:svgjs="http://svgjs.dev/svgjs" width="1000" height="1000" viewBox="0 0 1000 1000"><rect width="1000" height="1000" fill="#163a53"></rect><g transform="matrix(0.7,0,0,0.7,149.57575757575756,282.1265587044535)"><svg viewBox="0 0 396 247" data-background-color="#163a53" preserveAspectRatio="xMidYMid meet" height="623" width="1000" xmlns="http://www.w3.org/2000/svg" xmlns:xlink="http://www.w3.org/1999/xlink"><g id="tight-bounds" transform="matrix(1,0,0,1,0.2400000000000091,-0.09999999999999432)"><svg viewBox="0 0 395.52 247.2" height="247.2" width="395.52"><g><svg></svg></g><g><svg viewBox="0 0 395.52 247.2" height="247.2" width="395.52"><g transform="matrix(1,0,0,1,39.55199999999999,67.88107189340614)"><svg viewBox="0 0 316.416 111.4378562131877" height="111.4378562131877" width="316.416"><g><svg viewBox="0 0 316.416 111.4378562131877" height="111.4378562131877" width="316.416"><g><svg viewBox="0 0 316.416 111.4378562131877" height="111.4378562131877" width="316.416"><g><svg viewBox="0 0 316.416 111.4378562131877" height="111.4378562131877" width="316.416"><g><svg viewBox="0 0 316.416 111.4378562131877" height="111.4378562131877" width="316.416" id="textblock"><g><svg viewBox="0 0 316.416 82.13423627109563" height="82.13423627109563" width="316.416"><g transform="matrix(1,0,0,1,0,0)"><svg width="316.416" viewBox="3 -37.5 186.6300048828125 48.45000076293945" height="82.13423627109563" data-palette-color="#ffffff"><path d="M18.6-33.05L18.6-23.8Q19.65-24.6 21.18-24.6 22.7-24.6 23.78-23.55 24.85-22.5 24.85-20.3L24.85-20.3 24.85-4.4Q24.85-2.3 24.2-1.5L24.2-1.5Q22.9 0 20.4 0L20.4 0 3 0 3-3.4 6.15-3.4 6.15-34.15 3.05-34.15 3.05-37.5 13.5-37.5Q18.6-37.5 18.6-33.05L18.6-33.05ZM10.25-18.55L14.55-21.25 14.55-34.15 10.25-34.15 10.25-18.55ZM20.85-3.45L20.85-21.2 10.25-14.55 10.25-3.45 20.85-3.45ZM44.6-25L51.1-25 51.1 6.65Q51.1 8.75 50.07 9.85 49.05 10.95 46.5 10.95L46.5 10.95 34.95 10.95 34.95 4.15 38.35 4.15 38.35 7.5 47 7.5 47-5.65 38.2-0.2Q37.05 0.5 35.9 0.5L35.9 0.5Q34.75 0.5 33.9-0.28 33.05-1.05 33.05-2.75L33.05-2.75 33.05-21.6 29.85-21.6 29.85-25 37.1-25 37.1-3.45 47.05-9.7 47.05-21.6 44.6-21.6 44.6-25ZM59.3-34.1L63.2-34.1 63.2-25 67.25-25 67.25-21.4 63.2-21.4 63.2-3.4 67.94-3.4 67.94 0 63.74 0Q61.49 0 60.39-1.18 59.3-2.35 59.3-5.2L59.3-5.2 59.3-21.4 55.59-21.4 55.59-25 59.3-25 59.3-34.1ZM71.94-3.65L71.94-20.1Q71.94-25.05 77.09-25.05L77.09-25.05 85.54-25.05Q87.99-25.05 89.09-24.1 90.19-23.15 90.19-20.6L90.19-20.6 90.19-15.95 75.94-6.95 75.94-3.4 86.24-3.4 86.24-6.3 90.19-6.3 90.19-3.65Q90.19-2.15 89.27-1.07 88.34 0 86.19 0L86.19 0 75.94 0Q73.79 0 72.87-1.07 71.94-2.15 71.94-3.65L71.94-3.65ZM75.94-21.6L75.94-11 86.19-17.45 86.19-21.6 75.94-21.6ZM128.79-33.05L128.79-23.8Q129.84-24.6 131.36-24.6 132.89-24.6 133.96-23.55 135.04-22.5 135.04-20.3L135.04-20.3 135.04-4.4Q135.04-2.3 134.39-1.5L134.39-1.5Q133.09 0 130.59 0L130.59 0 113.19 0 113.19-3.4 116.34-3.4 116.34-34.15 113.24-34.15 113.24-37.5 123.69-37.5Q128.79-37.5 128.79-33.05L128.79-33.05ZM120.44-18.55L124.74-21.25 124.74-34.15 120.44-34.15 120.44-18.55ZM131.04-3.45L131.04-21.2 120.44-14.55 120.44-3.45 131.04-3.45ZM147.78-25L147.78-3.4 151.03-3.4 151.03 0 140.53 0 140.53-3.4 143.69-3.4 143.69-21.6 140.53-21.6 140.53-25 147.78-25ZM145.73-34.2Q146.78-34.2 147.51-33.43 148.23-32.65 148.23-31.58 148.23-30.5 147.51-29.78 146.78-29.05 145.71-29.05 144.63-29.05 143.91-29.78 143.19-30.5 143.19-31.58 143.19-32.65 143.94-33.43 144.69-34.2 145.73-34.2ZM158.73-34.1L162.63-34.1 162.63-25 166.68-25 166.68-21.4 162.63-21.4 162.63-3.4 167.38-3.4 167.38 0 163.18 0Q160.93 0 159.83-1.18 158.73-2.35 158.73-5.2L158.73-5.2 158.73-21.4 155.03-21.4 155.03-25 158.73-25 158.73-34.1ZM171.38-3.65L171.38-20.1Q171.38-25.05 176.53-25.05L176.53-25.05 184.98-25.05Q187.43-25.05 188.53-24.1 189.63-23.15 189.63-20.6L189.63-20.6 189.63-15.95 175.38-6.95 175.38-3.4 185.68-3.4 185.68-6.3 189.63-6.3 189.63-3.65Q189.63-2.15 188.7-1.07 187.78 0 185.63 0L185.63 0 175.38 0Q173.23 0 172.31-1.07 171.38-2.15 171.38-3.65L171.38-3.65ZM175.38-21.6L175.38-11 185.63-17.45 185.63-21.6 175.38-21.6Z" opacity="1" transform="matrix(1,0,0,1,0,0)" fill="#ffffff" class="undefined-text-0" data-fill-palette-color="primary" id="text-0"></path></svg></g></svg></g><g transform="matrix(1,0,0,1,0,94.11959256471899)"><svg viewBox="0 0 316.416 17.318263648468708" height="17.318263648468708" width="316.416"><g transform="matrix(1,0,0,1,0,0)"><svg width="316.416" viewBox="1.2200000286102295 -38.0099983215332 879.9800415039062 48.16999816894531" height="17.318263648468708" data-palette-color="#ffffff"><path d="M17.29-35.55L17.29 0 12.6 0 12.6-35.55 17.29-35.55ZM28.69-35.55L28.69-31.71 1.22-31.71 1.22-35.55 28.69-35.55ZM44.85-4.52L44.85-18.12Q44.85-20.48 43.44-21.89 42.04-23.29 39.3-23.29L39.3-23.29Q37.62-23.29 36.34-22.71 35.06-22.12 34.35-21.17 33.64-20.21 33.64-19.09L33.64-19.09 29.07-19.09Q29.07-21 30.37-22.79 31.66-24.58 34.02-25.74 36.37-26.9 39.57-26.9L39.57-26.9Q42.45-26.9 44.68-25.93 46.9-24.95 48.15-22.99 49.41-21.02 49.41-18.07L49.41-18.07 49.41-5.76Q49.41-4.44 49.64-2.95 49.88-1.46 50.34-0.39L50.34-0.39 50.34 0 45.58 0Q45.24-0.78 45.04-2.09 44.85-3.39 44.85-4.52L44.85-4.52ZM45.63-16.02L45.68-12.84 41.14-12.84Q37.28-12.84 35.18-11.62 33.08-10.4 33.08-7.96L33.08-7.96Q33.08-6.05 34.36-4.74 35.64-3.42 38.11-3.42L38.11-3.42Q40.18-3.42 41.77-4.3 43.36-5.18 44.28-6.47 45.21-7.76 45.29-8.96L45.29-8.96 47.24-6.79Q47.07-5.76 46.31-4.52 45.55-3.27 44.3-2.14 43.04-1 41.32-0.26 39.6 0.49 37.45 0.49L37.45 0.49Q34.76 0.49 32.75-0.55 30.73-1.59 29.62-3.37 28.51-5.15 28.51-7.32L28.51-7.32Q28.51-11.6 31.74-13.81 34.96-16.02 40.4-16.02L40.4-16.02 45.63-16.02ZM61.08-37.5L61.08 0 56.51 0 56.51-37.5 61.08-37.5ZM77.19-26.42L65.72-14.11 59.22-7.42 58.86-12.21 63.5-17.7 71.65-26.42 77.19-26.42ZM73.04 0L63.64-12.62 66.01-16.63 78.41 0 73.04 0ZM92.84 0.49L92.84 0.49Q89.15 0.49 86.43-1.16 83.71-2.81 82.21-5.69 80.71-8.57 80.71-12.28L80.71-12.28 80.71-13.33Q80.71-17.63 82.35-20.67 84-23.71 86.65-25.31 89.3-26.9 92.25-26.9L92.25-26.9Q96.06-26.9 98.47-25.21 100.87-23.51 102.01-20.59 103.14-17.68 103.14-13.99L103.14-13.99 103.14-11.96 83.42-11.96 83.42-15.63 98.58-15.63 98.58-15.97Q98.48-17.72 97.87-19.4 97.26-21.07 95.92-22.16 94.57-23.24 92.25-23.24L92.25-23.24Q90.2-23.24 88.63-22.08 87.05-20.92 86.16-18.71 85.27-16.5 85.27-13.33L85.27-13.33 85.27-12.28Q85.27-9.77 86.2-7.7 87.13-5.64 88.88-4.41 90.64-3.17 93.08-3.17L93.08-3.17Q95.48-3.17 97.14-4.15 98.8-5.13 100.04-6.76L100.04-6.76 102.8-4.61Q101.53-2.66 99.15-1.09 96.77 0.49 92.84 0.49ZM136.36-4.52L136.36-18.12Q136.36-20.48 134.96-21.89 133.56-23.29 130.82-23.29L130.82-23.29Q129.14-23.29 127.86-22.71 126.57-22.12 125.87-21.17 125.16-20.21 125.16-19.09L125.16-19.09 120.59-19.09Q120.59-21 121.89-22.79 123.18-24.58 125.54-25.74 127.89-26.9 131.09-26.9L131.09-26.9Q133.97-26.9 136.19-25.93 138.42-24.95 139.67-22.99 140.93-21.02 140.93-18.07L140.93-18.07 140.93-5.76Q140.93-4.44 141.16-2.95 141.39-1.46 141.86-0.39L141.86-0.39 141.86 0 137.1 0Q136.76-0.78 136.56-2.09 136.36-3.39 136.36-4.52L136.36-4.52ZM137.15-16.02L137.19-12.84 132.65-12.84Q128.8-12.84 126.7-11.62 124.6-10.4 124.6-7.96L124.6-7.96Q124.6-6.05 125.88-4.74 127.16-3.42 129.63-3.42L129.63-3.42Q131.7-3.42 133.29-4.3 134.88-5.18 135.8-6.47 136.73-7.76 136.8-8.96L136.8-8.96 138.76-6.79Q138.59-5.76 137.83-4.52 137.07-3.27 135.82-2.14 134.56-1 132.84-0.26 131.12 0.49 128.97 0.49L128.97 0.49Q126.28 0.49 124.27-0.55 122.25-1.59 121.14-3.37 120.03-5.15 120.03-7.32L120.03-7.32Q120.03-11.6 123.25-13.81 126.48-16.02 131.92-16.02L131.92-16.02 137.15-16.02ZM160.41-37.5L164.97-37.5 164.97-5.13 164.58 0 160.41 0 160.41-37.5ZM182.8-13.43L182.8-12.92Q182.8-9.06 181.6-6.03 180.4-3 178.11-1.26 175.81 0.49 172.54 0.49L172.54 0.49Q169.17 0.49 166.93-1.04 164.68-2.56 163.43-5.36 162.19-8.15 161.8-11.99L161.8-11.99 161.8-14.36Q162.19-18.24 163.43-21.04 164.68-23.85 166.91-25.38 169.15-26.9 172.49-26.9L172.49-26.9Q175.81-26.9 178.11-25.22 180.4-23.54 181.6-20.5 182.8-17.46 182.8-13.43L182.8-13.43ZM178.23-12.92L178.23-13.43Q178.23-16.06 177.57-18.27 176.91-20.48 175.41-21.8 173.91-23.12 171.34-23.12L171.34-23.12Q169.66-23.12 168.4-22.53 167.15-21.95 166.27-20.96 165.39-19.97 164.84-18.71 164.29-17.46 164.02-16.11L164.02-16.11 164.02-10.18Q164.41-8.47 165.29-6.9 166.17-5.32 167.67-4.32 169.17-3.32 171.39-3.32L171.39-3.32Q173.84-3.32 175.34-4.63 176.84-5.93 177.53-8.11 178.23-10.28 178.23-12.92L178.23-12.92ZM193.44-26.42L193.44 0 188.87 0 188.87-26.42 193.44-26.42ZM188.53-33.45L188.53-33.45Q188.53-34.52 189.2-35.28 189.87-36.04 191.19-36.04L191.19-36.04Q192.51-36.04 193.21-35.28 193.9-34.52 193.9-33.45L193.9-33.45Q193.9-32.4 193.21-31.65 192.51-30.91 191.19-30.91L191.19-30.91Q189.87-30.91 189.2-31.65 188.53-32.4 188.53-33.45ZM211.75-26.42L211.75-22.97 197.44-22.97 197.44-26.42 211.75-26.42ZM202.25-32.84L206.81-32.84 206.81-6.54Q206.81-5.18 207.23-4.49 207.64-3.81 208.3-3.59 208.96-3.37 209.72-3.37L209.72-3.37Q210.28-3.37 210.9-3.47 211.53-3.56 211.82-3.64L211.82-3.64 211.84 0Q211.31 0.17 210.44 0.33 209.57 0.49 208.35 0.49L208.35 0.49Q206.69 0.49 205.3-0.17 203.91-0.83 203.08-2.38 202.25-3.93 202.25-6.57L202.25-6.57 202.25-32.84ZM227.98 0.49L227.98 0.49Q224.29 0.49 221.57-1.16 218.85-2.81 217.35-5.69 215.84-8.57 215.84-12.28L215.84-12.28 215.84-13.33Q215.84-17.63 217.49-20.67 219.14-23.71 221.79-25.31 224.44-26.9 227.39-26.9L227.39-26.9Q231.2-26.9 233.61-25.21 236.01-23.51 237.15-20.59 238.28-17.68 238.28-13.99L238.28-13.99 238.28-11.96 218.55-11.96 218.55-15.63 233.72-15.63 233.72-15.97Q233.62-17.72 233.01-19.4 232.4-21.07 231.05-22.16 229.71-23.24 227.39-23.24L227.39-23.24Q225.34-23.24 223.77-22.08 222.19-20.92 221.3-18.71 220.41-16.5 220.41-13.33L220.41-13.33 220.41-12.28Q220.41-9.77 221.34-7.7 222.27-5.64 224.02-4.41 225.78-3.17 228.22-3.17L228.22-3.17Q230.61-3.17 232.27-4.15 233.93-5.13 235.18-6.76L235.18-6.76 237.94-4.61Q236.67-2.66 234.29-1.09 231.91 0.49 227.98 0.49ZM254.76-12.92L254.76-13.48Q254.76-17.31 256.22-20.34 257.68-23.36 260.37-25.13 263.06-26.9 266.74-26.9L266.74-26.9Q270.48-26.9 273.19-25.13 275.9-23.36 277.35-20.34 278.8-17.31 278.8-13.48L278.8-13.48 278.8-12.92Q278.8-9.11 277.35-6.07 275.9-3.03 273.2-1.27 270.5 0.49 266.79 0.49L266.79 0.49Q263.08 0.49 260.38-1.27 257.68-3.03 256.22-6.07 254.76-9.11 254.76-12.92L254.76-12.92ZM259.32-13.48L259.32-12.92Q259.32-10.3 260.15-8.08 260.98-5.86 262.63-4.52 264.28-3.17 266.79-3.17L266.79-3.17Q269.28-3.17 270.93-4.52 272.58-5.86 273.41-8.08 274.24-10.3 274.24-12.92L274.24-12.92 274.24-13.48Q274.24-16.09 273.41-18.31 272.58-20.53 270.92-21.89 269.26-23.24 266.74-23.24L266.74-23.24Q264.28-23.24 262.62-21.89 260.96-20.53 260.14-18.31 259.32-16.09 259.32-13.48L259.32-13.48ZM300.63-6.1L300.63-26.42 305.19-26.42 305.19 0 300.85 0 300.63-6.1ZM301.48-11.67L303.39-11.72Q303.39-8.2 302.38-5.44 301.38-2.69 299.11-1.1 296.84 0.49 293.03 0.49L293.03 0.49Q289.15 0.49 286.76-1.81 284.37-4.1 284.37-9.38L284.37-9.38 284.37-26.42 288.93-26.42 288.93-9.33Q288.93-6.93 289.63-5.63 290.32-4.32 291.43-3.82 292.55-3.32 293.77-3.32L293.77-3.32Q296.65-3.32 298.33-4.43 300.02-5.54 300.75-7.45 301.48-9.35 301.48-11.67L301.48-11.67ZM323.13-26.42L323.13-22.97 308.83-22.97 308.83-26.42 323.13-26.42ZM313.64-32.84L318.2-32.84 318.2-6.54Q318.2-5.18 318.62-4.49 319.03-3.81 319.69-3.59 320.35-3.37 321.11-3.37L321.11-3.37Q321.67-3.37 322.29-3.47 322.91-3.56 323.21-3.64L323.21-3.64 323.23 0Q322.69 0.17 321.83 0.33 320.96 0.49 319.74 0.49L319.74 0.49Q318.08 0.49 316.69-0.17 315.3-0.83 314.47-2.38 313.64-3.93 313.64-6.57L313.64-6.57 313.64-32.84ZM339.61-12.92L339.61-13.48Q339.61-17.31 341.07-20.34 342.54-23.36 345.22-25.13 347.91-26.9 351.6-26.9L351.6-26.9Q355.33-26.9 358.04-25.13 360.75-23.36 362.2-20.34 363.66-17.31 363.66-13.48L363.66-13.48 363.66-12.92Q363.66-9.11 362.2-6.07 360.75-3.03 358.05-1.27 355.36 0.49 351.64 0.49L351.64 0.49Q347.93 0.49 345.24-1.27 342.54-3.03 341.07-6.07 339.61-9.11 339.61-12.92L339.61-12.92ZM344.17-13.48L344.17-12.92Q344.17-10.3 345-8.08 345.83-5.86 347.48-4.52 349.13-3.17 351.64-3.17L351.64-3.17Q354.13-3.17 355.78-4.52 357.43-5.86 358.26-8.08 359.09-10.3 359.09-12.92L359.09-12.92 359.09-13.48Q359.09-16.09 358.26-18.31 357.43-20.53 355.77-21.89 354.11-23.24 351.6-23.24L351.6-23.24Q349.13-23.24 347.47-21.89 345.81-20.53 344.99-18.31 344.17-16.09 344.17-13.48L344.17-13.48ZM376.1 0L371.54 0 371.54-29.22Q371.54-33.47 373.87-35.74 376.2-38.01 380.26-38.01L380.26-38.01Q381.04-38.01 381.82-37.92 382.6-37.82 383.36-37.62L383.36-37.62 383.11-33.98Q382.6-34.08 381.95-34.13 381.31-34.18 380.67-34.18L380.67-34.18Q378.52-34.18 377.31-32.9 376.1-31.62 376.1-29.22L376.1-29.22 376.1 0ZM381.72-26.42L381.72-22.97 367.39-22.97 367.39-26.42 381.72-26.42ZM410.21-26.42L410.21-22.97 395.9-22.97 395.9-26.42 410.21-26.42ZM400.71-32.84L405.27-32.84 405.27-6.54Q405.27-5.18 405.69-4.49 406.1-3.81 406.76-3.59 407.42-3.37 408.18-3.37L408.18-3.37Q408.74-3.37 409.36-3.47 409.99-3.56 410.28-3.64L410.28-3.64 410.3 0Q409.77 0.17 408.9 0.33 408.03 0.49 406.81 0.49L406.81 0.49Q405.15 0.49 403.76-0.17 402.37-0.83 401.54-2.38 400.71-3.93 400.71-6.57L400.71-6.57 400.71-32.84ZM420.02-37.5L420.02 0 415.45 0 415.45-37.5 420.02-37.5ZM418.94-14.23L417.04-14.31Q417.09-17.92 418.43-20.76 419.77-23.61 422.18-25.26 424.58-26.9 427.78-26.9L427.78-26.9Q430.39-26.9 432.29-25.94 434.18-24.98 435.22-22.88 436.25-20.78 436.25-17.31L436.25-17.31 436.25 0 431.69 0 431.69-17.36Q431.69-19.43 431.09-20.7 430.49-21.97 429.32-22.55 428.15-23.12 426.44-23.12L426.44-23.12Q424.75-23.12 423.39-22.41 422.02-21.7 421.02-20.46 420.02-19.21 419.48-17.61 418.94-16.02 418.94-14.23L418.94-14.23ZM453.98 0.49L453.98 0.49Q450.29 0.49 447.57-1.16 444.84-2.81 443.34-5.69 441.84-8.57 441.84-12.28L441.84-12.28 441.84-13.33Q441.84-17.63 443.49-20.67 445.14-23.71 447.79-25.31 450.44-26.9 453.39-26.9L453.39-26.9Q457.2-26.9 459.6-25.21 462.01-23.51 463.14-20.59 464.28-17.68 464.28-13.99L464.28-13.99 464.28-11.96 444.55-11.96 444.55-15.63 459.71-15.63 459.71-15.97Q459.62-17.72 459.01-19.4 458.39-21.07 457.05-22.16 455.71-23.24 453.39-23.24L453.39-23.24Q451.34-23.24 449.76-22.08 448.19-20.92 447.3-18.71 446.41-16.5 446.41-13.33L446.41-13.33 446.41-12.28Q446.41-9.77 447.34-7.7 448.26-5.64 450.02-4.41 451.78-3.17 454.22-3.17L454.22-3.17Q456.61-3.17 458.27-4.15 459.93-5.13 461.18-6.76L461.18-6.76 463.94-4.61Q462.67-2.66 460.29-1.09 457.91 0.49 453.98 0.49ZM486.49-20.78L486.49 0 481.92 0 481.92-26.42 486.25-26.42 486.49-20.78ZM485.42-14.23L483.51-14.31Q483.56-17.92 484.9-20.76 486.25-23.61 488.65-25.26 491.06-26.9 494.25-26.9L494.25-26.9Q496.87-26.9 498.76-25.94 500.65-24.98 501.69-22.88 502.73-20.78 502.73-17.31L502.73-17.31 502.73 0 498.16 0 498.16-17.36Q498.16-19.43 497.56-20.7 496.96-21.97 495.79-22.55 494.62-23.12 492.91-23.12L492.91-23.12Q491.23-23.12 489.86-22.41 488.49-21.7 487.49-20.46 486.49-19.21 485.95-17.61 485.42-16.02 485.42-14.23L485.42-14.23ZM520.52 0.49L520.52 0.49Q516.83 0.49 514.11-1.16 511.39-2.81 509.89-5.69 508.39-8.57 508.39-12.28L508.39-12.28 508.39-13.33Q508.39-17.63 510.04-20.67 511.68-23.71 514.33-25.31 516.98-26.9 519.94-26.9L519.94-26.9Q523.74-26.9 526.15-25.21 528.55-23.51 529.69-20.59 530.82-17.68 530.82-13.99L530.82-13.99 530.82-11.96 511.1-11.96 511.1-15.63 526.26-15.63 526.26-15.97Q526.16-17.72 525.55-19.4 524.94-21.07 523.6-22.16 522.25-23.24 519.94-23.24L519.94-23.24Q517.88-23.24 516.31-22.08 514.73-20.92 513.84-18.71 512.95-16.5 512.95-13.33L512.95-13.33 512.95-12.28Q512.95-9.77 513.88-7.7 514.81-5.64 516.57-4.41 518.32-3.17 520.77-3.17L520.77-3.17Q523.16-3.17 524.82-4.15 526.48-5.13 527.72-6.76L527.72-6.76 530.48-4.61Q529.21-2.66 526.83-1.09 524.45 0.49 520.52 0.49ZM542.76-4.74L549.55-26.42 552.55-26.42 551.96-22.07 545.05 0 542.15 0 542.76-4.74ZM538.24-26.42L544.03-4.49 544.42 0 541.37 0 533.7-26.42 538.24-26.42ZM559.02-4.64L564.54-26.42 569.05-26.42 561.39 0 558.36 0 559.02-4.64ZM553.23-26.42L559.87-5.08 560.61 0 557.7 0 550.6-22.12 550.04-26.42 553.23-26.42ZM589.02-7.01L589.02-7.01Q589.02-7.98 588.59-8.83 588.17-9.67 586.87-10.36 585.58-11.06 582.97-11.6L582.97-11.6Q580.04-12.21 577.9-13.15 575.77-14.09 574.61-15.55 573.45-17.02 573.45-19.19L573.45-19.19Q573.45-21.29 574.65-23.03 575.86-24.78 578.07-25.84 580.28-26.9 583.24-26.9L583.24-26.9Q586.41-26.9 588.67-25.79 590.93-24.68 592.12-22.81 593.32-20.95 593.32-18.68L593.32-18.68 588.75-18.68Q588.75-20.31 587.33-21.78 585.9-23.24 583.24-23.24L583.24-23.24Q581.38-23.24 580.22-22.67 579.06-22.09 578.54-21.2 578.01-20.31 578.01-19.34L578.01-19.34Q578.01-18.36 578.5-17.64 578.99-16.92 580.29-16.36 581.6-15.8 584.09-15.23L584.09-15.23Q587.34-14.5 589.44-13.48 591.54-12.45 592.56-10.96 593.59-9.47 593.59-7.32L593.59-7.32Q593.59-5.03 592.32-3.26 591.05-1.49 588.75-0.5 586.46 0.49 583.36 0.49L583.36 0.49Q579.87 0.49 577.45-0.76 575.03-2 573.79-3.97 572.54-5.93 572.54-8.13L572.54-8.13 577.11-8.13Q577.23-6.27 578.19-5.19 579.16-4.1 580.56-3.64 581.97-3.17 583.36-3.17L583.36-3.17Q585.21-3.17 586.47-3.67 587.73-4.17 588.37-5.04 589.02-5.91 589.02-7.01ZM627.42-4.52L627.42-18.12Q627.42-20.48 626.02-21.89 624.61-23.29 621.88-23.29L621.88-23.29Q620.19-23.29 618.91-22.71 617.63-22.12 616.92-21.17 616.21-20.21 616.21-19.09L616.21-19.09 611.65-19.09Q611.65-21 612.94-22.79 614.24-24.58 616.59-25.74 618.95-26.9 622.15-26.9L622.15-26.9Q625.03-26.9 627.25-25.93 629.47-24.95 630.73-22.99 631.99-21.02 631.99-18.07L631.99-18.07 631.99-5.76Q631.99-4.44 632.22-2.95 632.45-1.46 632.91-0.39L632.91-0.39 632.91 0 628.15 0Q627.81-0.78 627.62-2.09 627.42-3.39 627.42-4.52L627.42-4.52ZM628.2-16.02L628.25-12.84 623.71-12.84Q619.85-12.84 617.75-11.62 615.65-10.4 615.65-7.96L615.65-7.96Q615.65-6.05 616.93-4.74 618.22-3.42 620.68-3.42L620.68-3.42Q622.76-3.42 624.34-4.3 625.93-5.18 626.86-6.47 627.79-7.76 627.86-8.96L627.86-8.96 629.81-6.79Q629.64-5.76 628.89-4.52 628.13-3.27 626.87-2.14 625.61-1 623.89-0.26 622.17 0.49 620.02 0.49L620.02 0.49Q617.34 0.49 615.32-0.55 613.31-1.59 612.2-3.37 611.09-5.15 611.09-7.32L611.09-7.32Q611.09-11.6 614.31-13.81 617.53-16.02 622.98-16.02L622.98-16.02 628.2-16.02ZM643.63-20.78L643.63 0 639.06 0 639.06-26.42 643.38-26.42 643.63-20.78ZM642.55-14.23L640.65-14.31Q640.7-17.92 642.04-20.76 643.38-23.61 645.79-25.26 648.19-26.9 651.39-26.9L651.39-26.9Q654-26.9 655.9-25.94 657.79-24.98 658.83-22.88 659.86-20.78 659.86-17.31L659.86-17.31 659.86 0 655.3 0 655.3-17.36Q655.3-19.43 654.7-20.7 654.1-21.97 652.93-22.55 651.76-23.12 650.05-23.12L650.05-23.12Q648.36-23.12 647-22.41 645.63-21.7 644.63-20.46 643.63-19.21 643.09-17.61 642.55-16.02 642.55-14.23L642.55-14.23ZM683.32-5.13L683.32-37.5 687.89-37.5 687.89 0 683.71 0 683.32-5.13ZM665.57-12.92L665.57-13.43Q665.57-17.46 666.88-20.5 668.19-23.54 670.53-25.22 672.87-26.9 676.02-26.9L676.02-26.9Q679.34-26.9 681.57-25.38 683.79-23.85 685.04-21.04 686.3-18.24 686.67-14.36L686.67-14.36 686.67-11.99Q686.3-8.15 685.06-5.36 683.81-2.56 681.58-1.04 679.34 0.49 675.97 0.49L675.97 0.49Q672.87 0.49 670.53-1.26 668.19-3 666.88-6.03 665.57-9.06 665.57-12.92L665.57-12.92ZM670.14-13.43L670.14-12.92Q670.14-10.28 670.86-8.11 671.58-5.93 673.12-4.63 674.66-3.32 677.1-3.32L677.1-3.32Q679.34-3.32 680.8-4.27 682.25-5.22 683.13-6.79 684.01-8.35 684.5-10.18L684.5-10.18 684.5-16.11Q684.2-17.46 683.65-18.71 683.1-19.97 682.24-20.96 681.37-21.95 680.11-22.53 678.86-23.12 677.15-23.12L677.15-23.12Q674.68-23.12 673.13-21.8 671.58-20.48 670.86-18.27 670.14-16.06 670.14-13.43L670.14-13.43ZM723.46-6.1L723.46-26.42 728.02-26.42 728.02 0 723.67 0 723.46-6.1ZM724.31-11.67L726.21-11.72Q726.21-8.2 725.21-5.44 724.21-2.69 721.94-1.1 719.67 0.49 715.86 0.49L715.86 0.49Q711.98 0.49 709.59-1.81 707.2-4.1 707.2-9.38L707.2-9.38 707.2-26.42 711.76-26.42 711.76-9.33Q711.76-6.93 712.46-5.63 713.15-4.32 714.26-3.82 715.37-3.32 716.59-3.32L716.59-3.32Q719.48-3.32 721.16-4.43 722.84-5.54 723.58-7.45 724.31-9.35 724.31-11.67L724.31-11.67ZM739.42-21.34L739.42 10.16 734.85 10.16 734.85-26.42 739-26.42 739.42-21.34ZM757.19-13.43L757.19-12.92Q757.19-9.06 756-6.03 754.8-3 752.52-1.26 750.23 0.49 746.96 0.49L746.96 0.49Q743.57 0.49 741.27-0.98 738.98-2.44 737.69-5.14 736.39-7.84 736-11.52L736-11.52 736-14.36Q736.39-18.24 737.7-21.04 739-23.85 741.29-25.38 743.57-26.9 746.89-26.9L746.89-26.9Q750.21-26.9 752.51-25.22 754.8-23.54 756-20.5 757.19-17.46 757.19-13.43L757.19-13.43ZM752.63-12.92L752.63-13.43Q752.63-16.06 751.88-18.27 751.14-20.48 749.56-21.8 747.99-23.12 745.52-23.12L745.52-23.12Q743.84-23.12 742.59-22.53 741.35-21.95 740.47-20.96 739.59-19.97 739.04-18.71 738.49-17.46 738.22-16.11L738.22-16.11 738.22-9.74Q738.71-8.03 739.58-6.53 740.44-5.03 741.9-4.1 743.35-3.17 745.57-3.17L745.57-3.17Q748.01-3.17 749.58-4.52 751.14-5.86 751.88-8.07 752.63-10.28 752.63-12.92L752.63-12.92ZM779.58-5.13L779.58-37.5 784.14-37.5 784.14 0 779.97 0 779.58-5.13ZM761.83-12.92L761.83-13.43Q761.83-17.46 763.14-20.5 764.44-23.54 766.79-25.22 769.13-26.9 772.28-26.9L772.28-26.9Q775.6-26.9 777.82-25.38 780.04-23.85 781.3-21.04 782.56-18.24 782.92-14.36L782.92-14.36 782.92-11.99Q782.56-8.15 781.31-5.36 780.07-2.56 777.83-1.04 775.6 0.49 772.23 0.49L772.23 0.49Q769.13 0.49 766.79-1.26 764.44-3 763.14-6.03 761.83-9.06 761.83-12.92L761.83-12.92ZM766.39-13.43L766.39-12.92Q766.39-10.28 767.11-8.11 767.83-5.93 769.37-4.63 770.91-3.32 773.35-3.32L773.35-3.32Q775.6-3.32 777.05-4.27 778.5-5.22 779.38-6.79 780.26-8.35 780.75-10.18L780.75-10.18 780.75-16.11Q780.46-17.46 779.91-18.71 779.36-19.97 778.49-20.96 777.62-21.95 776.37-22.53 775.11-23.12 773.4-23.12L773.4-23.12Q770.94-23.12 769.39-21.8 767.83-20.48 767.11-18.27 766.39-16.06 766.39-13.43L766.39-13.43ZM806.72-4.52L806.72-18.12Q806.72-20.48 805.32-21.89 803.92-23.29 801.18-23.29L801.18-23.29Q799.5-23.29 798.22-22.71 796.93-22.12 796.23-21.17 795.52-20.21 795.52-19.09L795.52-19.09 790.95-19.09Q790.95-21 792.25-22.79 793.54-24.58 795.9-25.74 798.25-26.9 801.45-26.9L801.45-26.9Q804.33-26.9 806.55-25.93 808.77-24.95 810.03-22.99 811.29-21.02 811.29-18.07L811.29-18.07 811.29-5.76Q811.29-4.44 811.52-2.95 811.75-1.46 812.22-0.39L812.22-0.39 812.22 0 807.46 0Q807.11-0.78 806.92-2.09 806.72-3.39 806.72-4.52L806.72-4.52ZM807.51-16.02L807.55-12.84 803.01-12.84Q799.16-12.84 797.06-11.62 794.96-10.4 794.96-7.96L794.96-7.96Q794.96-6.05 796.24-4.74 797.52-3.42 799.99-3.42L799.99-3.42Q802.06-3.42 803.65-4.3 805.23-5.18 806.16-6.47 807.09-7.76 807.16-8.96L807.16-8.96 809.12-6.79Q808.95-5.76 808.19-4.52 807.43-3.27 806.17-2.14 804.92-1 803.2-0.26 801.47 0.49 799.33 0.49L799.33 0.49Q796.64 0.49 794.63-0.55 792.61-1.59 791.5-3.37 790.39-5.15 790.39-7.32L790.39-7.32Q790.39-11.6 793.61-13.81 796.84-16.02 802.28-16.02L802.28-16.02 807.51-16.02ZM829.48-26.42L829.48-22.97 815.17-22.97 815.17-26.42 829.48-26.42ZM819.98-32.84L824.54-32.84 824.54-6.54Q824.54-5.18 824.96-4.49 825.37-3.81 826.03-3.59 826.69-3.37 827.45-3.37L827.45-3.37Q828.01-3.37 828.63-3.47 829.26-3.56 829.55-3.64L829.55-3.64 829.57 0Q829.04 0.17 828.17 0.33 827.3 0.49 826.08 0.49L826.08 0.49Q824.42 0.49 823.03-0.17 821.64-0.83 820.81-2.38 819.98-3.93 819.98-6.57L819.98-6.57 819.98-32.84ZM845.71 0.49L845.71 0.49Q842.02 0.49 839.3-1.16 836.58-2.81 835.08-5.69 833.57-8.57 833.57-12.28L833.57-12.28 833.57-13.33Q833.57-17.63 835.22-20.67 836.87-23.71 839.52-25.31 842.17-26.9 845.12-26.9L845.12-26.9Q848.93-26.9 851.34-25.21 853.74-23.51 854.88-20.59 856.01-17.68 856.01-13.99L856.01-13.99 856.01-11.96 836.28-11.96 836.28-15.63 851.45-15.63 851.45-15.97Q851.35-17.72 850.74-19.4 850.13-21.07 848.78-22.16 847.44-23.24 845.12-23.24L845.12-23.24Q843.07-23.24 841.5-22.08 839.92-20.92 839.03-18.71 838.14-16.5 838.14-13.33L838.14-13.33 838.14-12.28Q838.14-9.77 839.07-7.7 840-5.64 841.75-4.41 843.51-3.17 845.95-3.17L845.95-3.17Q848.34-3.17 850.01-4.15 851.67-5.13 852.91-6.76L852.91-6.76 855.67-4.61Q854.4-2.66 852.02-1.09 849.64 0.49 845.71 0.49ZM876.64-7.01L876.64-7.01Q876.64-7.98 876.21-8.83 875.78-9.67 874.49-10.36 873.2-11.06 870.58-11.6L870.58-11.6Q867.65-12.21 865.52-13.15 863.38-14.09 862.22-15.55 861.06-17.02 861.06-19.19L861.06-19.19Q861.06-21.29 862.27-23.03 863.48-24.78 865.69-25.84 867.9-26.9 870.85-26.9L870.85-26.9Q874.03-26.9 876.28-25.79 878.54-24.68 879.74-22.81 880.94-20.95 880.94-18.68L880.94-18.68 876.37-18.68Q876.37-20.31 874.94-21.78 873.51-23.24 870.85-23.24L870.85-23.24Q869-23.24 867.84-22.67 866.68-22.09 866.15-21.2 865.63-20.31 865.63-19.34L865.63-19.34Q865.63-18.36 866.12-17.64 866.6-16.92 867.91-16.36 869.22-15.8 871.71-15.23L871.71-15.23Q874.95-14.5 877.05-13.48 879.15-12.45 880.18-10.96 881.2-9.47 881.2-7.32L881.2-7.32Q881.2-5.03 879.93-3.26 878.66-1.49 876.37-0.5 874.07 0.49 870.97 0.49L870.97 0.49Q867.48 0.49 865.07-0.76 862.65-2 861.4-3.97 860.16-5.93 860.16-8.13L860.16-8.13 864.72-8.13Q864.85-6.27 865.81-5.19 866.78-4.1 868.18-3.64 869.58-3.17 870.97-3.17L870.97-3.17Q872.83-3.17 874.09-3.67 875.34-4.17 875.99-5.04 876.64-5.91 876.64-7.01Z" opacity="1" transform="matrix(1,0,0,1,0,0)" fill="#ffffff" class="undefined-text-1" data-fill-palette-color="secondary" id="text-1"></path></svg></g></svg></g></svg></g></svg></g><g></g></svg></g></svg></g></svg></g><g mask="url(#f847d2df-8dd7-488a-ad3a-d6b50444d9f7)"><g transform="matrix(2.919047619047619, 0, 0, 2.919047619047619, 66.40285714285713, 1)"><svg xmlns="http://www.w3.org/2000/svg" xmlns:xlink="http://www.w3.org/1999/xlink" version="1.1" x="0" y="0" viewBox="5.5 7.5 90 84" enable-background="new 0 0 100 100" xml:space="preserve" height="84" width="90" class="icon-none" data-fill-palette-color="accent" id="none"><g fill="#810c00" data-fill-palette-color="accent"><polygon points="43.5,29.609 43.39,29.5 41.976,29.5 43.5,31.031  " fill="#810c00" data-fill-palette-color="accent"></polygon><polygon points="43.5,38.145 34.906,29.5 33.491,29.5 43.5,39.566  " fill="#810c00" data-fill-palette-color="accent"></polygon><polygon points="36.76,65.5 5.5,34.063 5.5,35.484 35.346,65.5  " fill="#810c00" data-fill-palette-color="accent"></polygon><polygon points="33.932,65.5 5.5,36.906 5.5,38.328 32.518,65.5  " fill="#810c00" data-fill-palette-color="accent"></polygon><polygon points="43.5,55.213 17.935,29.5 16.521,29.5 43.5,56.635  " fill="#810c00" data-fill-palette-color="accent"></polygon><polygon points="43.5,35.299 37.734,29.5 36.32,29.5 43.5,36.721  " fill="#810c00" data-fill-palette-color="accent"></polygon><polygon points="42.417,65.5 6.621,29.5 5.5,29.5 5.5,29.795 41.002,65.5  " fill="#810c00" data-fill-palette-color="accent"></polygon><polygon points="43.5,40.988 32.077,29.5 30.663,29.5 43.5,42.41  " fill="#810c00" data-fill-palette-color="accent"></polygon><polygon points="43.5,32.455 40.562,29.5 39.148,29.5 43.5,33.877  " fill="#810c00" data-fill-palette-color="accent"></polygon><polygon points="14.134,65.5 5.5,56.799 5.5,58.221 12.721,65.5  " fill="#810c00" data-fill-palette-color="accent"></polygon><polygon points="43.5,58.057 15.106,29.5 13.692,29.5 43.5,59.479  " fill="#810c00" data-fill-palette-color="accent"></polygon><polygon points="8.035,29.5 43.5,65.168 43.5,63.744 9.449,29.5  " fill="#810c00" data-fill-palette-color="accent"></polygon><polygon points="43.5,60.9 12.278,29.5 10.863,29.5 43.5,62.322  " fill="#810c00" data-fill-palette-color="accent"></polygon><polygon points="39.588,65.5 5.5,31.219 5.5,32.641 38.174,65.5  " fill="#810c00" data-fill-palette-color="accent"></polygon><polygon points="22.616,65.5 5.5,48.281 5.5,49.699 21.202,65.5  " fill="#810c00" data-fill-palette-color="accent"></polygon><polygon points="25.445,65.5 5.5,45.439 5.5,46.861 24.031,65.5  " fill="#810c00" data-fill-palette-color="accent"></polygon><polygon points="43.5,43.834 29.248,29.5 27.834,29.5 43.5,45.256  " fill="#810c00" data-fill-palette-color="accent"></polygon><polygon points="43.5,49.523 23.591,29.5 22.177,29.5 43.5,50.945  " fill="#810c00" data-fill-palette-color="accent"></polygon><polygon points="16.961,65.5 5.5,53.957 5.5,55.377 15.548,65.5  " fill="#810c00" data-fill-palette-color="accent"></polygon><polygon points="19.789,65.5 5.5,51.119 5.5,52.537 18.375,65.5  " fill="#810c00" data-fill-palette-color="accent"></polygon><polygon points="43.5,52.367 20.763,29.5 19.349,29.5 43.5,53.789  " fill="#810c00" data-fill-palette-color="accent"></polygon><polygon points="11.307,65.5 5.5,59.643 5.5,61.066 9.893,65.5  " fill="#810c00" data-fill-palette-color="accent"></polygon><polygon points="8.479,65.5 5.5,62.492 5.5,63.918 7.065,65.5  " fill="#810c00" data-fill-palette-color="accent"></polygon><polygon points="31.104,65.5 5.5,39.75 5.5,41.174 29.689,65.5  " fill="#810c00" data-fill-palette-color="accent"></polygon><polygon points="28.273,65.5 5.5,42.596 5.5,44.018 26.859,65.5  " fill="#810c00" data-fill-palette-color="accent"></polygon><polygon points="43.5,46.678 26.42,29.5 25.006,29.5 43.5,48.1  " fill="#810c00" data-fill-palette-color="accent"></polygon><rect x="5.5" y="17.5" width="67" height="6" fill="#810c00" data-fill-palette-color="accent"></rect><rect x="49.5" y="29.5" width="46" height="4" fill="#810c00" data-fill-palette-color="accent"></rect><rect x="5.5" y="87.5" width="45" height="4" fill="#810c00" data-fill-palette-color="accent"></rect><rect x="5.5" y="71.5" width="83" height="4" fill="#810c00" data-fill-palette-color="accent"></rect><rect x="5.5" y="79.5" width="90" height="4" fill="#810c00" data-fill-palette-color="accent"></rect><rect x="49.5" y="53.5" width="46" height="4" fill="#810c00" data-fill-palette-color="accent"></rect><rect x="49.5" y="37.5" width="29" height="4" fill="#810c00" data-fill-palette-color="accent"></rect><rect x="49.5" y="61.5" width="29" height="4" fill="#810c00" data-fill-palette-color="accent"></rect><rect x="49.5" y="45.5" width="39" height="4" fill="#810c00" data-fill-palette-color="accent"></rect><rect x="5.5" y="7.5" width="90" height="6" fill="#810c00" data-fill-palette-color="accent"></rect></g></svg></g></g></svg></g><defs><mask id="f847d2df-8dd7-488a-ad3a-d6b50444d9f7"><rect width="640" height="400" fill="white"></rect><rect width="348.05760000000004" height="135.4085688004344" fill="black" x="145.97119999999998" y="132.2957155997828" id="transform-me" transform="matrix(1,0,0,1,-122.24000000000001,-76.4)"></rect></mask></defs></svg><rect width="395.52" height="247.2" fill="none" stroke="none" visibility="hidden"></rect></g></svg></g></svg>